<?xml version="1.0" encoding="UTF-8"?>
<svg id="Layer_1" xmlns="http://www.w3.org/2000/svg" version="1.1" viewBox="0 0 139.9 21">
  <!-- Generator: Adobe Illustrator 29.5.1, SVG Export Plug-In . SVG Version: 2.1.0 Build 141)  -->
  <defs>
    <style>
      .st0 {
        fill: #fff;
      }
    </style>
  </defs>
  <path class="st0" d="M9.4,1.1c5.2,0,9.4,4.2,9.4,9.4,0,5.2-4.2,9.4-9.4,9.4C4.2,19.9,0,15.7,0,10.5,0,5.3,4.2,1.1,9.4,1.1ZM7,18.6c.8.2,1.6.3,2.4.3s1.9-.2,2.8-.5c0,0,0,0,0-.1l-2.6-7.2-2.5,7.4ZM1.7,7c-.5,1.1-.7,2.2-.7,3.5,0,3.4,1.9,6.3,4.8,7.6L1.7,7ZM16.9,6.4c0,.3,0,.6,0,.9,0,.9-.2,1.8-.6,3l-2.6,7.5c2.5-1.5,4.2-4.2,4.2-7.3,0-1.5-.4-2.9-1-4.1ZM43.5,7.3c.9,0,1.6.2,2.3.6.6.4,1.1.9,1.5,1.6.4.7.5,1.5.5,2.5s-.2,1.8-.5,2.5c-.4.7-.9,1.2-1.5,1.6-.6.4-1.4.6-2.3.6s-1.6-.2-2.3-.6c-.6-.4-1.1-.9-1.5-1.6-.4-.7-.5-1.5-.5-2.5s.2-1.8.5-2.5c.4-.7.9-1.2,1.5-1.6.6-.4,1.4-.6,2.3-.6ZM83.6,7.3c.6,0,1.1,0,1.6.3.5.2.9.5,1.3.8h0c.4.4.7.9.9,1.4.2.6.3,1.3.3,2.1v.7h-6.3c0,.5,0,.9.3,1.3.2.4.5.7.8.9.3.2.8.3,1.2.3.3,0,.6,0,.8-.1.3,0,.5-.2.7-.4.2-.2.3-.4.4-.6l2,.2c-.1.5-.4,1-.7,1.4-.4.4-.8.7-1.3.9-.5.2-1.2.3-1.9.3-.9,0-1.7-.2-2.3-.6-.7-.4-1.2-.9-1.5-1.6-.4-.7-.5-1.5-.5-2.5s.2-1.7.5-2.5c.4-.7.9-1.3,1.5-1.7.6-.4,1.4-.6,2.3-.6ZM121.8,7.3c.9,0,1.6.2,2.3.6.6.4,1.1.9,1.5,1.6.4.7.5,1.5.5,2.5s-.2,1.8-.5,2.5c-.4.7-.9,1.2-1.5,1.6-.6.4-1.4.6-2.3.6-.9,0-1.7-.2-2.3-.6-.6-.4-1.1-.9-1.5-1.6-.4-.7-.5-1.5-.5-2.5s.2-1.8.5-2.5c.4-.7.9-1.2,1.5-1.6.6-.4,1.4-.6,2.3-.6ZM113,7.3c.7,0,1.4.1,2,.4.6.3,1,.6,1.4,1.1.3.5.5,1.1.6,1.7h-2c0-.4-.3-.8-.6-1.1-.3-.3-.7-.4-1.2-.4-.4,0-.8.1-1.1.4-.3.2-.6.6-.8,1-.2.4-.3,1-.3,1.6s0,1.1.3,1.6c.2.4.4.8.8,1,.3.2.7.4,1.2.4s.6,0,.8-.2c.2-.1.5-.3.6-.5.2-.2.3-.5.3-.8h2c0,.6-.2,1.2-.6,1.7-.3.5-.8.9-1.3,1.2-.6.3-1.2.4-2,.4s-1.7-.2-2.3-.6c-.6-.4-1.1-.9-1.5-1.6-.3-.7-.5-1.5-.5-2.4s.2-1.7.5-2.4c.4-.7.9-1.3,1.5-1.7.6-.4,1.4-.6,2.3-.6ZM92.2,7.3c1.1,0,1.9.2,2.5.7.6.5,1,1.1,1.1,1.8l-1.9.2c0-.2-.1-.4-.3-.6-.1-.2-.3-.3-.5-.4-.2-.1-.5-.2-.8-.2-.4,0-.8,0-1.1.3-.3.2-.4.4-.4.7,0,.3,0,.5.3.6.2.2.5.3,1,.4l1.5.3h0c.9.2,1.5.5,1.9.9.4.4.6.9.6,1.6,0,.6-.2,1.1-.5,1.5-.3.4-.8.8-1.4,1-.6.2-1.2.4-2,.4-1.1,0-2-.2-2.7-.7-.7-.5-1.1-1.1-1.2-1.9l2.1-.2c0,.4.3.7.6.9.3.2.7.3,1.2.3.5,0,.9-.1,1.2-.3.3-.2.5-.5.5-.8,0-.3-.1-.5-.3-.6-.2-.2-.5-.3-.9-.4l-1.5-.3c-.9-.2-1.5-.5-1.9-.9-.4-.4-.6-1-.6-1.6,0-.6.1-1,.5-1.5.3-.4.7-.7,1.3-1,.6-.2,1.2-.3,1.9-.3ZM100.6,7.3c1.1,0,1.9.2,2.5.7.6.5,1,1.1,1.1,1.8l-1.9.2c0-.2-.1-.4-.3-.6-.1-.2-.3-.3-.5-.4-.2-.1-.5-.2-.8-.2-.4,0-.8,0-1.1.3-.3.2-.4.4-.4.7,0,.3,0,.5.3.6.2.2.5.3,1,.4l1.5.3h0c.9.2,1.5.5,1.9.9.4.4.6.9.6,1.6,0,.6-.2,1.1-.5,1.5-.3.4-.8.8-1.4,1-.6.2-1.2.4-2,.4-1.1,0-2-.2-2.7-.7-.7-.5-1.1-1.1-1.2-1.9l2.1-.2c0,.4.3.7.6.9.3.2.7.3,1.2.3.5,0,.9-.1,1.2-.3.3-.2.5-.5.5-.8s-.1-.5-.3-.6c-.2-.2-.5-.3-.9-.4l-1.5-.3c-.9-.2-1.5-.5-1.9-.9-.4-.4-.6-1-.6-1.6,0-.6.1-1,.5-1.5.3-.4.7-.7,1.3-1,.6-.2,1.2-.3,1.9-.3ZM62.7,16.5h-2.1v-1.4h-.1c-.1.2-.3.5-.5.7-.2.2-.5.5-.8.6-.3.2-.8.3-1.3.3s-1.3-.2-1.9-.5c-.6-.4-1-.9-1.3-1.6-.3-.7-.5-1.5-.5-2.5s.2-1.9.5-2.5c.3-.7.8-1.2,1.3-1.6.6-.4,1.2-.5,1.9-.5.5,0,1,0,1.3.3.3.2.6.4.8.6.2.3.4.5.5.7h0v-4.5h2.1v12.1ZM106.7,14c.3,0,.6.1.9.4.3.3.4.6.4.9,0,.2,0,.5-.2.7-.1.2-.3.4-.5.5-.2.1-.4.2-.6.2-.4,0-.7-.1-.9-.4-.3-.3-.4-.6-.4-.9,0-.4.1-.7.4-.9.3-.3.6-.4.9-.4h0ZM53.2,7.3c.1,0,.3,0,.4,0,.1,0,.3,0,.4,0v2c0,0-.2,0-.4,0-.2,0-.4,0-.6,0-.4,0-.7,0-1,.3-.3.2-.6.4-.7.7-.2.3-.3.6-.3,1v5.3h-2.1V7.4h2.1v1.5h0c.2-.5.4-.9.9-1.2.4-.3.9-.4,1.4-.4h0ZM78.4,7.3c.1,0,.2,0,.4,0,.1,0,.3,0,.4,0v2c0,0-.2,0-.4,0-.2,0-.4,0-.6,0-.4,0-.7,0-1,.3-.3.2-.5.4-.7.7-.2.3-.3.6-.3,1v5.3h-2.1V7.4h2.1v1.5h0c.2-.5.5-.9.9-1.2.4-.3.9-.4,1.4-.4h0ZM28,13.3h.1l2.3-8.9h2.1l2.3,8.9h.1l2.2-8.9h2.3l-3.4,12.1h-2.2l-2.4-8.5h0l-2.4,8.5h-2.2l-3.4-12.1h2.3l2.2,8.9ZM68.9,4.4c.9,0,1.7.2,2.3.5.6.3,1.1.8,1.4,1.4.3.6.5,1.3.5,2.1,0,.8-.2,1.5-.5,2.1-.3.6-.8,1.1-1.4,1.4-.6.3-1.4.5-2.3.5h-2.3v4.1h-2.2V4.4h4.5ZM131.8,7.3c.6,0,1.1.1,1.6.4.4.3.7.7.9,1.2h0c.2-.5.5-.9,1-1.2.5-.3,1-.5,1.7-.5.8,0,1.5.3,2,.8h0c.5.5.8,1.3.8,2.3v6.1h-2.1v-5.7c0-.6-.1-1-.4-1.2-.3-.3-.7-.4-1.1-.4-.5,0-.9.2-1.2.5-.3.3-.4.7-.4,1.2v5.6h-2.1v-5.8c0-.5-.1-.8-.4-1.1-.3-.3-.6-.4-1.1-.4-.3,0-.6,0-.8.2-.3.2-.5.4-.6.7-.1.3-.2.6-.2,1v5.5h-2.1V7.4h2v1.5h.1c.2-.5.5-.9.9-1.2.4-.3.9-.4,1.6-.4ZM9.4,2c-3,0-5.6,1.5-7.1,3.8.2,0,.4,0,.5,0,.9,0,2.2-.1,2.3-.1.5,0,.5.6,0,.7,0,0-.5,0-1,0l3.1,9.2,1.9-5.6-1.3-3.6c-.4,0-.9,0-.9,0-.5,0-.4-.7,0-.7,0,0,1.4.1,2.2.1s2.3-.1,2.3-.1c.5,0,.5.6,0,.7,0,0-.5,0-1,0h0s3.1,9.1,3.1,9.1l.8-2.8c.4-1.1.6-2,.6-2.7,0-1.1-.4-1.8-.7-2.3-.4-.7-.8-1.3-.8-2,0-.8.6-1.5,1.4-1.5,0,0,0,0,.1,0-1.5-1.4-3.5-2.2-5.7-2.2ZM43.5,9c-.5,0-.9.1-1.2.4-.3.3-.6.6-.7,1.1-.2.4-.2,1-.2,1.5,0,.6,0,1.1.2,1.5.2.4.4.8.7,1.1.3.3.7.4,1.2.4s.9-.1,1.2-.4c.3-.3.6-.6.7-1.1.2-.4.2-.9.2-1.5s0-1.1-.2-1.5c-.2-.4-.4-.8-.7-1.1-.3-.3-.7-.4-1.2-.4ZM121.8,9c-.5,0-.9.1-1.2.4-.3.3-.6.6-.7,1.1-.2.4-.2,1-.2,1.5s0,1.1.2,1.5c.2.4.4.8.7,1.1.3.3.7.4,1.2.4s.9-.1,1.2-.4c.3-.3.6-.6.7-1.1.2-.4.2-.9.2-1.5s0-1.1-.2-1.5c-.2-.4-.4-.8-.7-1.1-.3-.3-.7-.4-1.2-.4ZM58.5,9.1c-.5,0-.9.1-1.2.4-.3.2-.6.6-.7,1-.2.4-.2.9-.2,1.5s0,1.1.2,1.5c.2.4.4.8.7,1,.3.3.7.4,1.2.4.5,0,.8-.1,1.2-.4.3-.2.6-.6.7-1h0c.2-.4.2-1,.2-1.5,0-.6,0-1.1-.2-1.5-.2-.4-.4-.8-.7-1-.3-.2-.7-.4-1.2-.4ZM83.7,9c-.4,0-.8.1-1.1.3-.3.2-.6.5-.8.8-.2.3-.3.6-.3,1h0s4.2,0,4.2,0c0-.4,0-.8-.3-1.1-.2-.3-.4-.6-.7-.8-.3-.2-.7-.3-1.1-.3ZM66.6,10.6h2c.5,0,1,0,1.3-.3.3-.2.6-.4.8-.8h0c.2-.3.2-.7.2-1.1,0-.4,0-.8-.2-1.1-.2-.3-.4-.6-.8-.8-.3-.2-.8-.3-1.3-.3h-2v4.4Z"/>
</svg>