<svg width="24" height="24" viewBox="0 0 24 24" fill="none" xmlns="http://www.w3.org/2000/svg">
<path d="M20.9988 7.98575C20.9978 7.80475 20.9955 7.6235 20.9907 7.4425C20.98 7.04825 20.9567 6.65025 20.8867 6.2605C20.8155 5.8645 20.6995 5.496 20.5163 5.13625C20.3363 4.78275 20.1012 4.4595 19.821 4.17925C19.5407 3.899 19.2173 3.66375 18.8638 3.48375C18.5043 3.30075 18.1357 3.1845 17.74 3.1135C17.35 3.04325 16.952 3.02025 16.5575 3.0095C16.3765 3.0045 16.1955 3.0025 16.0142 3.0015C15.7992 3 15.5843 3 15.3693 3H8.63075C8.41575 3 8.20075 3 7.98575 3.00125C7.80475 3.00225 7.6235 3.0045 7.4425 3.00925C7.048 3.02 6.65 3.04325 6.26 3.11325C5.86425 3.1845 5.496 3.3005 5.13625 3.4835C4.78275 3.6635 4.4595 3.8985 4.179 4.179C3.89875 4.4595 3.6635 4.78275 3.48375 5.13625C3.3005 5.496 3.1845 5.8645 3.11325 6.2605C3.04325 6.6505 3.02 7.04825 3.00925 7.4425C3.00425 7.6235 3.00225 7.8045 3.00125 7.98575C3 8.20075 3 8.41575 3 8.63075V15.3695C3 15.5845 3 15.7995 3.00125 16.0145C3.00225 16.1955 3.0045 16.3767 3.00925 16.5577C3.02 16.952 3.04325 17.35 3.11325 17.7397C3.1845 18.1357 3.3005 18.5043 3.48375 18.864C3.66375 19.2175 3.89875 19.5407 4.179 19.821C4.4595 20.1015 4.78275 20.3365 5.13625 20.5163C5.49575 20.6993 5.86425 20.8155 6.26 20.8865C6.65 20.9567 7.048 20.9797 7.4425 20.9905C7.6235 20.9955 7.8045 20.9975 7.98575 20.9985C8.20075 21 8.41575 21 8.63075 21H15.3695C15.5845 21 15.7995 21 16.0145 20.9988C16.1955 20.9978 16.3767 20.9955 16.5577 20.9907C16.9522 20.98 17.3502 20.9567 17.7402 20.8867C18.136 20.8155 18.5043 20.6995 18.864 20.5165C19.2175 20.3365 19.5408 20.1015 19.8213 19.8213C20.1015 19.5408 20.3368 19.2175 20.5165 18.8643C20.6998 18.5045 20.8157 18.136 20.887 17.74C20.957 17.35 20.9802 16.9522 20.991 16.558C20.996 16.377 20.998 16.196 20.999 16.0147C21 15.7992 21 15.5843 21 15.3693V8.63075C21 8.41575 21 8.20075 20.9988 7.98575ZM13.3787 14.9288C13.3357 15.433 13.2545 16.1055 13.148 16.7902C13.0722 17.2775 13.0108 17.5408 12.9548 17.729C12.864 18.0343 12.5248 18.3013 11.9943 18.3013C11.4638 18.3013 11.1245 18.0343 11.0337 17.729C10.9777 17.5408 10.9162 17.2775 10.8405 16.7902C10.7342 16.1055 10.6527 15.433 10.6097 14.9288C10.5647 14.3995 10.5413 14.0685 10.583 13.6842C10.6045 13.4857 10.6725 13.3465 10.8015 13.2105C11.0485 12.95 11.4823 12.783 11.9943 12.783C12.5063 12.783 12.9403 12.95 13.187 13.2105C13.316 13.3465 13.384 13.4857 13.4055 13.6842C13.4473 14.0687 13.4237 14.3998 13.3787 14.9288ZM9.84925 13.65C9.901 13.6985 9.9285 13.7675 9.92475 13.838C9.91275 14.0533 9.917 14.2625 9.9315 14.499C9.93525 14.5617 9.86475 14.6022 9.81275 14.5667C8.777 13.8595 8.1005 12.6638 8.11775 11.314C8.144 9.262 9.78975 7.571 11.8413 7.4915C14.0485 7.406 15.8717 9.17625 15.8717 11.3645C15.8717 12.6933 15.1993 13.868 14.1768 14.5665C14.1248 14.602 14.054 14.5617 14.058 14.499C14.0722 14.2627 14.0767 14.0535 14.0645 13.8383C14.0605 13.7675 14.0883 13.6985 14.14 13.65C14.7498 13.0777 15.1313 12.265 15.1313 11.3647C15.1313 9.59475 13.6565 8.1625 11.8708 8.2315C10.2278 8.29525 8.9025 9.63725 8.85925 11.2805C8.83425 12.214 9.2205 13.0597 9.84925 13.65ZM13.3413 10.8925C13.3413 11.6362 12.7383 12.239 11.9943 12.239C11.2503 12.239 10.6473 11.6362 10.6473 10.8925C10.6473 10.1487 11.2503 9.546 11.9943 9.546C12.7383 9.546 13.3413 10.1487 13.3413 10.8925ZM13.9097 16.824C13.8545 16.8435 13.7985 16.7975 13.8073 16.7397C13.837 16.5417 13.8652 16.343 13.891 16.1473C13.9002 16.0783 13.944 16.0183 14.0077 15.9905C15.7915 15.2118 17.0413 13.4315 17.0413 11.3645C17.0413 8.56875 14.7548 6.29675 11.9528 6.31925C9.212 6.3415 6.974 8.575 6.9475 11.315C6.92725 13.4027 8.18275 15.2052 9.9805 15.9902C10.0445 16.0182 10.0885 16.0778 10.0978 16.147C10.1235 16.3428 10.1517 16.5417 10.1815 16.7397C10.1902 16.7977 10.1342 16.8435 10.079 16.824C7.8045 16.0243 6.17575 13.8423 6.20725 11.2915C6.24625 8.1425 8.8275 5.58775 11.9775 5.579C15.1765 5.57 17.7817 8.16875 17.7817 11.3647C17.7817 13.884 16.1625 16.032 13.9097 16.824Z"/>
</svg>
