<svg width="24" height="24" viewBox="0 0 24 24" fill="none" xmlns="http://www.w3.org/2000/svg">
<path d="M12 2C17.523 2 22 6.47704 22 12C22 17.523 17.523 22 12 22C6.47704 22 2 17.523 2 12C2 6.47704 6.47704 2 12 2ZM12 4.22266C7.70445 4.22266 4.22266 7.70445 4.22266 12C4.22269 16.2955 7.70447 19.7773 12 19.7773V17.833C8.77836 17.833 6.16702 15.2216 6.16699 12C6.16699 8.77834 8.77834 6.16699 12 6.16699C15.2217 6.16699 17.833 8.77834 17.833 12H19.7773C19.7773 7.70445 16.2955 4.22266 12 4.22266ZM12 7.33301C9.42267 7.33301 7.33301 9.42267 7.33301 12C7.33304 14.5773 9.42269 16.667 12 16.667V14.9697C10.3599 14.9697 9.0303 13.6401 9.03027 12C9.03027 10.3599 10.3599 9.03027 12 9.03027C13.6401 9.03028 14.9697 10.3599 14.9697 12H16.667C16.667 9.42267 14.5773 7.33301 12 7.33301Z"/>
</svg>
