<svg width="24" height="24" viewBox="0 0 24 24" fill="none" xmlns="http://www.w3.org/2000/svg">
<path d="M12 2C17.5227 2 22 6.47734 22 12C22 17.5227 17.5227 22 12 22H3.44824C2.914 21.9998 2.64634 21.3537 3.02441 20.9756L4.92871 19.0713C3.11934 17.2619 2 14.7617 2 12C2 6.47734 6.47734 2 12 2ZM15.6562 4.66602C14.8516 4.66602 14.1807 5.23652 14.0244 5.99512C12.6768 6.13965 11.624 7.28281 11.624 8.66797V8.67578C10.1585 8.7375 8.82028 9.15496 7.75781 9.81348C7.36328 9.50801 6.86758 9.32617 6.33008 9.32617C5.04039 9.32628 3.99522 10.3714 3.99512 11.6611C3.99512 12.5971 4.54531 13.4037 5.33984 13.7764C5.41733 16.4872 8.37138 18.668 12.0049 18.668C15.6383 18.6678 18.5955 16.4847 18.6689 13.7715C19.4572 13.3965 20.0029 12.5926 20.0029 11.6621C20.0029 10.3723 18.9577 9.32725 17.668 9.32715C17.1329 9.32715 16.6398 9.50748 16.2461 9.81055C15.1743 9.14732 13.8211 8.73033 12.3408 8.6748V8.66797C12.341 7.67597 13.0781 6.85292 14.0342 6.71777L14.0723 6.85156C14.2906 7.51749 14.9172 7.99902 15.6562 7.99902C16.5765 7.99892 17.3223 7.25228 17.3223 6.33203C17.3221 5.41196 16.5763 4.66612 15.6562 4.66602ZM12.0049 14.9902C12.8165 14.9902 13.5931 15.0299 14.3125 15.1025C14.4349 15.1151 14.5132 15.2425 14.4658 15.3564C14.0635 16.3181 13.1133 16.994 12.0049 16.9941C10.8963 16.9941 9.94707 16.3182 9.54395 15.3564C9.49636 15.2425 9.57385 15.1153 9.69629 15.1025C10.415 15.0299 11.1932 14.9902 12.0049 14.9902ZM8.91895 11.6465C9.57275 11.6465 10.0731 12.333 10.0342 13.1797C9.99512 14.0264 9.50703 14.3348 8.85254 14.335C8.1979 14.335 7.62509 13.9903 7.66406 13.1436C7.70312 12.2968 8.26521 11.6467 8.91895 11.6465ZM15.0908 11.6465C15.7453 11.6467 16.3074 12.2968 16.3457 13.1436C16.3847 13.9903 15.8111 14.335 15.1572 14.335C14.5035 14.3348 14.0146 14.0272 13.9756 13.1797C13.9367 12.333 14.4362 11.6465 15.0908 11.6465Z"/>
</svg>
