<svg width="24" height="24" viewBox="0 0 24 24" fill="none" xmlns="http://www.w3.org/2000/svg">
<path d="M12 2C17.5228 2 22 6.47715 22 12C22 17.5228 17.5228 22 12 22C6.47715 22 2 17.5228 2 12C2 6.47715 6.47715 2 12 2ZM5.96289 8.48242C5.18274 8.48255 4.78715 8.84526 4.78711 9.51562C4.78716 10.186 5.20472 10.5711 5.96289 10.5713H6.80957V14.583C6.80963 15.7152 7.5685 16.3857 8.67871 16.3857C9.56882 16.3856 10.2837 15.9465 10.8223 14.9355L12.0205 12.6924V14.5947C12.0207 15.7156 12.7461 16.3857 13.8672 16.3857C14.7463 16.3856 15.3951 16.0014 16.0215 14.9355L18.7803 10.2744C19.3848 9.25229 18.9565 8.4827 17.627 8.48242C16.9124 8.48242 16.4499 8.71367 16.0322 9.49414L14.1309 13.0664V9.88965C14.1309 8.94438 13.68 8.48252 12.8447 8.48242C12.1852 8.48242 11.6577 8.76825 11.251 9.55957L9.45898 13.0664V9.92285C9.45898 8.91172 9.04118 8.48258 8.03027 8.48242H5.96289Z"/>
</svg>
